# xmcd
#
# Track frame offsets:
#	150
#	13870
#	30463
#	42723
#	55328
#	74240
#	86195
#	101325
#	116745
#	134828
#	150028
#	164603
#	176465
#	187368
#	201433
#	216315
#
# Disc length: 3131 seconds
#
# Revision: 2
# Processed by: cddbd v1.5.2PL0 Copyright (c) Steve Scherf et al.
# Submitted via: audiograbber 1.83.01
#
DISCID=fa0c3910
DTITLE=Kenny Rogers - The Hit Singles Collection
DYEAR=1985
DGENRE=Country
TTITLE0=Ruby, Don't Take Your Love To Town
TTITLE1=Tulsa Turnaround
TTITLE2=Elvira
TTITLE3=Reuben James
TTITLE4=The King Of Oak Street
TTITLE5=Me And Bobby McGee
TTITLE6=Just Dropped In (To See What Condition My Condition Is In)
TTITLE7=For The Good Times
TTITLE8=Something's Burning
TTITLE9=Tell It All Brother
TTITLE10=Sunshine
TTITLE11=A Poem For My Little Lady
TTITLE12=She Even Woke Me Up To Say Goodbye
TTITLE13=But You Know I Love You
TTITLE14=Heed The Call
TTITLE15=I Believe In Music
EXTD=AAD-MCA Records -1992 YEAR: 1985
EXTT0=
EXTT1=
EXTT2=
EXTT3=
EXTT4=
EXTT5=
EXTT6=
EXTT7=
EXTT8=
EXTT9=
EXTT10=
EXTT11=
EXTT12=
EXTT13=
EXTT14=
EXTT15=
PLAYORDER=
